<?xml version="1.0" encoding="utf-8"?>
<!-- Generator: Adobe Illustrator 25.0.0, SVG Export Plug-In . SVG Version: 6.00 Build 0)  -->
<svg version="1.1" id="Layer_1" xmlns="http://www.w3.org/2000/svg" xmlns:xlink="http://www.w3.org/1999/xlink" x="0px" y="0px"
	 viewBox="0 0 200 200" style="enable-background:new 0 0 200 200;" xml:space="preserve">
<style type="text/css">
	.st0{fill:#1E1E1C;}
	.st1{fill:#99B81F;}
	.st2{fill:#FBBE3C;}
	.st3{fill:#683D14;}
</style>
<g>
	<path class="st0" d="M177.35,81.72c-1.74,0.51-0.51-1.8-0.72-4.12c-0.15-1.9-0.42-3.79-0.81-5.66c-0.66-2.86-1.38-5.75-2.53-8.45
		c-2.65-6.29-6.65-12.06-11.79-16.57C128.89,18.25,28.9,21.47,32.93,78.78c1.71,0.24,3.37,1.26,4.15,3.25
		C41.62,93.48,67.43,93.39,77,93.7c18.41,0.6,36.91-0.48,55.17-2.77C146.61,89.15,163.9,87.92,177.35,81.72z M25.23,80.76
		C8.56,8.87,188.09-12.01,186.28,85.03c-0.03,0.93-0.36,1.96-0.9,2.77c4.69,6.14,7.7,15.88-2.59,18.89
		c-2.11,0.6-4.51,0.87-7.01,1.05c10.68,12.3,9.45,20.46,2.17,25.87c28.16,38.08-54.42,37.84-73.31,37.69
		c-21.63-0.21-49,7.58-69.34-1.68c-8.03-3.67-15.88-11.25-16.54-20.58c-0.42-5.44,1.14-10.08,4.84-12.21
		c-7.01-5.23-9.48-13.15-0.96-21.87c-0.39-2.68-0.06-5.56,0.69-8.33c-6.56-0.21-12.48-3.37-11.52-11.46
		C12.69,87.8,18.46,82.45,25.23,80.76z M168.47,103.53c9.02,3.16,13.45-1.32,13.24-13.42c-24.12,10.74-54.3,13.33-80.77,14.05
		c4.66,8.54,13.99,11.22,21.33,3.01c1.11-1.26,3.43-0.6,3.79,0.99c3.7,15.55,26.38,19.82,28.07,0.6c0.09-1.08,0.81-1.9,1.96-1.96
		c5.23-0.15,7.07-1.87,11.37-3.28C167.78,103.44,168.11,103.44,168.47,103.53z M113.1,165.05c16.6-0.15,78.42,0.81,59.62-28.46
		c-19.13,8.66-58,7.43-69.76,7.79c-22.08,0.63-45.39,2.98-67.11-2.11c-2.23-0.51-4.33-1.23-6.32-2.11
		c-10.05,4.93-2.02,16.09,3.34,20.64c4.3,3.67,10.14,5.11,15.7,5.6c9.36,0.84,18.68,0.54,28.04-0.15
		C88.85,165.38,100.85,165.17,113.1,165.05z M171.9,130.91c9.39-5.75,3.82-13.93-1.23-20.73c-0.51-0.69-0.57-1.38-0.36-2.05
		c-5.78,0.54-11.04,1.71-13.03,7.07c-6.5,17.66-27.52,11.52-34.23-2.29c-8.45,7.64-18.26,4.36-23.43-4.69
		c-1.38,5.6-5.14,11.07-10.08,13.39c-7.34,3.43-14.44,1.41-19.94-4.33c-0.15-0.15-0.21-0.3-0.3-0.45c-0.3,0.39-0.75,0.66-1.35,0.6
		c-3.94-0.27-7.19,2.05-11.07,1.93c-2.17-0.09-3.94-1.47-5.44-3.07c-4.63,6.92-13.72,10.71-21.75,7.58
		c-1.77-0.69-3.16-1.65-4.21-2.77c-2.74,5.99-2.53,10.77,6.17,13.51c7.82,2.5,16,3.43,24.19,3.76c15.73,0.66,31.4-0.36,47.14-0.69
		c14.08-0.3,28.16,0.66,42.23-0.6C153.74,136.29,164.35,135.51,171.9,130.91z M95.71,104.28c-0.24,0-0.48,0.03-0.72,0.03
		c-17.12,0.3-52.19,2.53-64.55-14.35c-1.23-0.06-2.47-0.78-3.07-2.32c-0.33-0.87-0.6-1.68-0.87-2.53c-3.37,1.93-6.47,4.6-7.88,7.97
		c-2.95,6.92,2.89,8.39,8.63,7.88c2.26-0.21,3.13,2.41,2.35,4.09c-2.65,5.72-3.04,14.8,5.66,14.65c6.32-0.12,10.26-3.79,13.69-8.75
		c1.05-1.5,3.07-1.53,4.09,0c4.69,6.98,9.45,1.5,15.4,2.8c0.42,0.06,0.69,0.3,0.9,0.57c0.78-1.08,2.38-1.62,3.7-0.48
		c4.75,3.91,11.19,6.2,16.24,1.32C92.58,111.98,94.11,108.28,95.71,104.28z"/>
	<path class="st1" d="M181.71,90.12c0.21,12.09-4.21,16.57-13.24,13.42c-0.36-0.09-0.69-0.09-1.02,0c-4.3,1.41-6.14,3.13-11.37,3.28
		c-1.14,0.06-1.87,0.87-1.96,1.96c-1.68,19.22-24.37,14.95-28.07-0.6c-0.36-1.59-2.68-2.26-3.79-0.99
		c-7.34,8.21-16.66,5.53-21.33-3.01C127.41,103.44,157.59,100.85,181.71,90.12z"/>
	<path class="st2" d="M176.63,77.6c0.21,2.32-1.02,4.63,0.72,4.12c-13.45,6.2-30.74,7.43-45.18,9.2C113.91,93.21,95.41,94.3,77,93.7
		c-9.57-0.3-35.38-0.21-39.92-11.67c-0.78-1.99-2.44-3.01-4.15-3.25c-4.03-57.3,95.96-60.52,128.57-31.86
		c5.14,4.51,9.14,10.29,11.79,16.57c1.14,2.71,1.87,5.6,2.53,8.45C176.21,73.81,176.48,75.71,176.63,77.6z M162.46,72.25
		c0.78-1.11-0.48-2.59-1.68-2.23c-2.26,0.72-3.82,3.01-6.32,3.13c-2.5,0.12-2.35-3.46-2.2-5.05c0.12-1.62-2.68-1.59-2.53,0
		c0.3,2.53,0.78,6.2,3.49,7.31C156.2,76.58,160.74,74.71,162.46,72.25z M157.68,56.21c0.24-3.67-4.75-7.28-8.18-6.5
		c-4.21,0.93-4,6.65-3.7,9.9c0.18,2.38,3.4,2.35,3.64,0c0.12-1.17,0.21-2.83,0.84-3.85c0.21-0.39,0.42-0.72,0.63-1.11
		c0-0.03,0.03-0.03,0.03-0.06c0.33,0.12,0.66,0.36,1.02,0.6c1.29,0.9,2.08,2.23,3.7,2.56C156.71,57.96,157.59,57.3,157.68,56.21z
		 M83.2,53.3c0.54-1.96-0.15-4.36-0.36-6.38c-0.24-2.44-1.26-4.3-2.86-6.14c-0.84-0.93-2.17-0.87-3.19-0.39
		c-2.62,1.2-5.23,3.07-5.44,6.17c-0.15,2.2,1.11,4.12,1.35,6.29c0.33,2.53,3.79,2.62,4.03,0c0.12-1.77-0.15-3.43-0.33-5.17
		c-0.03-0.6-0.09-0.54,0.18-0.84c0.27-0.27,0.6-0.48,0.9-0.69c0.36,0.63,0.57,1.32,0.72,2.2c0.3,2.02,0.36,4.33,2.05,5.75
		C81.21,54.92,82.83,54.68,83.2,53.3z M69.84,72.31c0.84-0.36,0.81-1.68-0.21-1.68c-2.86,0.06-8.03,0.15-8.6,4
		c-0.57,3.73,3.4,6.11,6.44,6.98c1.56,0.42,3.07-1.74,1.68-2.86c-0.96-0.75-1.93-1.5-2.89-2.26c-0.36-0.3-0.69-0.63-0.99-0.96
		c-0.06-0.06-0.06-0.12-0.09-0.15c0-0.06,0-0.15,0.06-0.21c0.12-0.24,0.39-0.42,0.6-0.57C67.07,73.72,68.49,72.88,69.84,72.31z
		 M63.49,52.24c1.38-0.69,0.33-2.56-0.99-2.35c-2.5,0.39-4.81-0.15-7.22,0.96c-3.16,1.47-3.58,5.75-3.58,8.75
		c0,0.84,0.51,1.93,1.32,2.29c1.87,0.84,3.43,1.17,5.47,0.87c1.17-0.18,2.08-0.93,3.16-1.29c1.71-0.57,1.99-3.28,0-3.73
		c-1.53-0.33-3.04,0.12-4.54-0.06c0.06-0.69,0.15-1.38,0.36-2.05c0.18-0.57,0.54-0.84,0.81-1.02
		C59.73,53.75,61.81,53.09,63.49,52.24z"/>
	<path class="st2" d="M172.72,136.59c18.8,29.27-43.02,28.31-59.62,28.46c-12.24,0.12-24.25,0.33-36.49,1.2
		c-9.36,0.69-18.68,0.99-28.04,0.15c-5.56-0.48-11.4-1.93-15.7-5.6c-5.35-4.54-13.39-15.7-3.34-20.64c1.99,0.87,4.09,1.59,6.32,2.11
		c21.72,5.08,45.03,2.74,67.11,2.11C114.72,144.02,153.58,145.25,172.72,136.59z"/>
	<path class="st3" d="M170.67,110.18c5.05,6.8,10.62,14.98,1.23,20.73c-7.55,4.6-18.17,5.38-26.71,6.17
		c-14.08,1.26-28.16,0.3-42.23,0.6c-15.73,0.33-31.4,1.35-47.14,0.69c-8.18-0.33-16.36-1.26-24.19-3.76
		c-8.69-2.74-8.9-7.52-6.17-13.51c1.05,1.11,2.44,2.08,4.21,2.77c8.03,3.13,17.12-0.66,21.75-7.58c1.5,1.59,3.28,2.98,5.44,3.07
		c3.88,0.12,7.13-2.2,11.07-1.93c0.6,0.06,1.05-0.21,1.35-0.6c0.09,0.15,0.15,0.3,0.3,0.45c5.5,5.75,12.6,7.76,19.94,4.33
		c4.93-2.32,8.69-7.79,10.08-13.39c5.17,9.05,14.98,12.33,23.43,4.69c6.71,13.81,27.73,19.94,34.23,2.29
		c1.99-5.35,7.25-6.53,13.03-7.07C170.1,108.8,170.16,109.49,170.67,110.18z"/>
	<path class="st0" d="M160.77,70.02c1.2-0.36,2.47,1.11,1.68,2.23c-1.71,2.47-6.26,4.33-9.23,3.16c-2.71-1.11-3.19-4.78-3.49-7.31
		c-0.15-1.59,2.65-1.62,2.53,0c-0.15,1.59-0.3,5.17,2.2,5.05C156.95,73.03,158.52,70.74,160.77,70.02z"/>
	<path class="st0" d="M149.49,49.72c3.43-0.78,8.42,2.83,8.18,6.5c-0.09,1.08-0.96,1.74-2.02,1.53c-1.62-0.33-2.41-1.65-3.7-2.56
		c-0.36-0.24-0.69-0.48-1.02-0.6c0,0.03-0.03,0.03-0.03,0.06c-0.21,0.39-0.42,0.72-0.63,1.11c-0.63,1.02-0.72,2.68-0.84,3.85
		c-0.24,2.35-3.46,2.38-3.64,0C145.49,56.37,145.28,50.65,149.49,49.72z"/>
	<path class="st1" d="M94.99,104.31c0.24,0,0.48-0.03,0.72-0.03c-1.59,4-3.13,7.7-6.44,10.89c-5.05,4.87-11.49,2.59-16.24-1.32
		c-1.32-1.14-2.92-0.6-3.7,0.48c-0.21-0.27-0.48-0.51-0.9-0.57c-5.96-1.29-10.71,4.18-15.4-2.8c-1.02-1.53-3.04-1.5-4.09,0
		c-3.43,4.96-7.37,8.63-13.69,8.75c-8.69,0.15-8.3-8.93-5.66-14.65c0.78-1.68-0.09-4.3-2.35-4.09c-5.75,0.51-11.58-0.96-8.63-7.88
		c1.41-3.37,4.51-6.05,7.88-7.97c0.27,0.84,0.54,1.65,0.87,2.53c0.6,1.53,1.83,2.26,3.07,2.32
		C42.8,106.84,77.87,104.61,94.99,104.31z"/>
	<path class="st0" d="M82.83,46.92c0.21,2.02,0.9,4.42,0.36,6.38c-0.36,1.38-1.99,1.62-2.95,0.78c-1.68-1.41-1.74-3.73-2.05-5.75
		c-0.15-0.87-0.36-1.56-0.72-2.2c-0.3,0.21-0.63,0.42-0.9,0.69c-0.27,0.3-0.21,0.24-0.18,0.84c0.18,1.74,0.45,3.4,0.33,5.17
		c-0.24,2.62-3.7,2.53-4.03,0c-0.24-2.17-1.5-4.09-1.35-6.29c0.21-3.1,2.83-4.96,5.44-6.17c1.02-0.48,2.35-0.54,3.19,0.39
		C81.57,42.62,82.59,44.48,82.83,46.92z"/>
	<path class="st0" d="M69.63,70.62c1.02,0,1.05,1.32,0.21,1.68c-1.35,0.57-2.77,1.41-4,2.29c-0.21,0.15-0.48,0.33-0.6,0.57
		c-0.06,0.06-0.06,0.15-0.06,0.21c0.03,0.03,0.03,0.09,0.09,0.15c0.3,0.33,0.63,0.66,0.99,0.96c0.96,0.75,1.93,1.5,2.89,2.26
		c1.38,1.11-0.12,3.28-1.68,2.86c-3.04-0.87-7.01-3.25-6.44-6.98C61.6,70.77,66.77,70.68,69.63,70.62z"/>
	<path class="st0" d="M62.5,49.9c1.32-0.21,2.38,1.65,0.99,2.35c-1.68,0.84-3.76,1.5-5.2,2.38c-0.27,0.18-0.63,0.45-0.81,1.02
		c-0.21,0.66-0.3,1.35-0.36,2.05c1.5,0.18,3.01-0.27,4.54,0.06c1.99,0.45,1.71,3.16,0,3.73c-1.08,0.36-1.99,1.11-3.16,1.29
		c-2.05,0.3-3.61-0.03-5.47-0.87c-0.81-0.36-1.32-1.44-1.32-2.29c0-3.01,0.42-7.28,3.58-8.75C57.69,49.75,60,50.29,62.5,49.9z"/>
</g>
</svg>
